<?xml version="1.0" encoding="UTF-8" standalone="no"?>
<svg
   version="1.0"
   width="682.66699"
   height="682.66669"
   viewBox="0 0 512.00025 512.00002"
   preserveAspectRatio="xMidYMid"
   id="svg5607"
   sodipodi:docname="blueprint-logo.svg"
   inkscape:version="1.2.2 (b0a84865, 2022-12-01)"
   xmlns:inkscape="http://www.inkscape.org/namespaces/inkscape"
   xmlns:sodipodi="http://sodipodi.sourceforge.net/DTD/sodipodi-0.dtd"
   xmlns="http://www.w3.org/2000/svg"
   xmlns:svg="http://www.w3.org/2000/svg">
  <defs
     id="defs5611" />
  <sodipodi:namedview
     id="namedview5609"
     pagecolor="#ffffff"
     bordercolor="#000000"
     borderopacity="0.25"
     inkscape:showpageshadow="2"
     inkscape:pageopacity="0.0"
     inkscape:pagecheckerboard="0"
     inkscape:deskcolor="#d1d1d1"
     inkscape:document-units="pt"
     showgrid="false"
     inkscape:zoom="0.49474751"
     inkscape:cx="874.18328"
     inkscape:cy="476.00037"
     inkscape:window-width="1920"
     inkscape:window-height="1027"
     inkscape:window-x="1920"
     inkscape:window-y="25"
     inkscape:window-maximized="1"
     inkscape:current-layer="g10770" />
  <g
     transform="matrix(0,0.1,0.1,0,-39.983086,3.613644)"
     fill="#000000"
     stroke="none"
     id="g5605">
    <g
       id="g10770"
       transform="matrix(0.9717651,0,0,0.9717651,71.420823,87.366183)"
       style="stroke:none;stroke-opacity:1;stroke-width:0.99818359;stroke-dasharray:none">
      <g
         id="g17534"
         transform="matrix(0,7.7179145,7.7179145,0,-233.69386,-856.51546)"
         style="fill:#2094f3;fill-opacity:1">
        <g
           id="g18307"
           transform="matrix(4.6570996,0,0,4.6570996,10.671952,-124.22619)"
           style="fill:#2094f3;fill-opacity:1">
          <g
             id="g18302"
             style="fill:#2094f3;fill-opacity:1">
            <path
               d="m 172.40984,122.47634 -50,49.9 c -0.2,0.2 -0.5,0.3 -0.7,0.2 l -68.300004,-18.3 c -0.3,-0.1 -0.5,-0.3 -0.5,-0.5 l -18.4,-68.200003 c -0.1,-0.3 0,-0.5 0.2,-0.7 l 50,-49.899999 c 0.2,-0.2 0.5,-0.3 0.7,-0.2 l 68.300004,18.299999 c 0.3,0.1 0.5,0.3 0.5,0.5 l 18.3,68.200003 c 0.2,0.3 0.1,0.5 -0.1,0.7 z m -67,-54.300003 -67.100004,17.9 c -0.1,0 -0.2,0.2 -0.1,0.3 l 49.1,49.000003 c 0.1,0.1 0.3,0.1 0.3,-0.1 L 105.60984,68.276337 c 0.1,0 -0.1,-0.2 -0.2,-0.1 z"
               id="path19116"
               style="fill:#2094f3;fill-opacity:1" />
            <path
               d="m 34.67962,84.87634 50,-49.9 c 0.2,-0.2 0.5,-0.3 0.7,-0.2 l 68.30001,18.3 c 0.3,0.1 0.5,0.3 0.5,0.5 l 18.4,68.2 c 0.1,0.3 0,0.5 -0.2,0.7 l -50,49.9 c -0.2,0.2 -0.5,0.3 -0.7,0.2 l -68.30001,-18.3 c -0.3,-0.1 -0.5,-0.3 -0.5,-0.5 l -18.3,-68.2 c -0.2,-0.3 -0.1,-0.5 0.1,-0.7 z m 66.99999,54.3 67.10002,-17.9 c 0.1,0 0.2,-0.2 0.1,-0.3 l -49.1,-49 c -0.1,-0.1 -0.3,-0.1 -0.3,0.1 l -18.00002,67 c -0.1,0 0.1,0.2 0.2,0.1 z"
               id="path19113"
               style="fill:#2094f3;fill-opacity:1" />
          </g>
        </g>
      </g>
      <g
         id="g19104"
         transform="matrix(0.88750949,0,0,0.88750949,221.27604,312.14444)">
        <path
           d="m 2395.3257,5013.8301 c -14,-2 -52,-9 -85,-15 -384,-66 -761.7535,-362.8442 -890.7535,-738.8442 -77,-225 -81,-449 -12,-638 60,-166 -50.5722,-5.9859 812.4278,-867.9859 462,-461 824,-814 856,-835 74,-49 197,-89 317,-102 440,-49 834,259 889,698 22,173 -20,312 -129,426 -186,195 -500,195 -686,0 -161,-169 -180,-418 -42,-556 122,-121 328,-121 450,0 20,21 48,61 62,89 22,46 24,47 18,16 -13,-63 -74,-166 -134,-223 -191,-182 -471,-182 -662,0 -108,103 -157,238 -146,401 8,110 28,186 77,288 100,208 294,368 520,431 91,24 309,24 400,0 277,-77 499,-298 577,-577 29,-104 24,-344 -10,-472 -107,-405 -405,-704 -815,-816 l -97,-27 -855,-3 -854,-3 -638,638 -638,638 639,5 930.6906,5 -140.7652,158 -146.8826,158 L 957,3090 c -774,0 -741,3 -792,-65 -30,-38 -40,-81 -30,-132 6,-34 97,-128 833,-866 644,-644 836,-831 867,-843 35,-13 150,-14 940,-11 867,3 903,4 995,24 295,65 529,191 735,398 122,121 209,243 280,389 204,422 188,935 -39,1250 -25,34 -410,428 -858,877 -623,626 -683.6743,676.8301 -737.6743,710.8301 -136,88 -264,142 -410,174 -68,15 -295,27 -345,18 z m 262,-328 c 145,-29 252,-78 363,-167 C 3053.3257,4492.8301 3135,4421 3378,4177 l 444,-444 -85,-6 c -402,-31 -749,-262 -927,-617 -44,-87 -86,-213 -101,-305 -7,-41 -16,-75 -19,-75 -4,0 -236,231 -516,513 -545,548 -447.4278,403.9859 -482.4278,536.9859 -46,179 16,424 156,608 173,228 526.7535,352.8442 809.7535,297.8442 z"
           id="path19127"
           sodipodi:nodetypes="cccccccccccccccccccccccccccccccccccccccccccccccccccccscccc"
           style="fill:#ffffff;fill-opacity:1;stroke:none;stroke-width:40.1023;stroke-dasharray:none;stroke-opacity:1" />
        <path
           id="path19124"
           style="opacity:0.98;fill:#ffffff;paint-order:stroke markers fill"
           d="m 3080.1569,3785.2786 a 454.12299,448.61847 0 0 1 -454.123,448.6184 454.12299,448.61847 0 0 1 -454.123,-448.6184 454.12299,448.61847 0 0 1 454.123,-448.6185 454.12299,448.61847 0 0 1 454.123,448.6185 z"
           transform="matrix(0,1,1,0,0,0)" />
      </g>
    </g>
  </g>
</svg>
